<svg xmlns="http://www.w3.org/2000/svg" xmlns:xlink="http://www.w3.org/1999/xlink" width="50" zoomAndPan="magnify" viewBox="0 0 37.5 37.499999" height="50" preserveAspectRatio="xMidYMid meet" version="1.0"><defs><clipPath id="42403682ce"><path d="M 8.390625 8.390625 L 28.375 8.390625 L 28.375 28.375 L 8.390625 28.375 Z M 8.390625 8.390625 " clip-rule="nonzero"/></clipPath><clipPath id="acce547995"><path d="M 34.292969 33.304688 L 37.007812 33.304688 L 37.007812 37.007812 L 34.292969 37.007812 Z M 34.292969 33.304688 " clip-rule="nonzero"/></clipPath></defs><g clip-path="url(#42403682ce)"><path fill="#3e4a4a" d="M 28.460938 18.832031 C 28.480469 18.179688 28.4375 17.527344 28.328125 16.882812 C 28.21875 16.238281 28.050781 15.609375 27.816406 15 C 27.585938 14.386719 27.296875 13.804688 26.949219 13.25 C 26.601562 12.695312 26.203125 12.179688 25.753906 11.703125 C 25.304688 11.226562 24.816406 10.800781 24.28125 10.421875 C 23.75 10.042969 23.183594 9.71875 22.585938 9.449219 C 21.992188 9.179688 21.375 8.972656 20.738281 8.828125 C 20.097656 8.679688 19.453125 8.597656 18.800781 8.578125 C 18.144531 8.558594 17.496094 8.601562 16.851562 8.710938 C 16.207031 8.820312 15.578125 8.988281 14.964844 9.222656 C 14.355469 9.453125 13.769531 9.742188 13.214844 10.089844 C 12.660156 10.4375 12.144531 10.835938 11.671875 11.285156 C 11.195312 11.730469 10.765625 12.222656 10.386719 12.753906 C 10.007812 13.289062 9.683594 13.851562 9.414062 14.449219 C 9.144531 15.046875 8.9375 15.664062 8.792969 16.300781 C 8.644531 16.9375 8.5625 17.582031 8.542969 18.238281 C 8.523438 18.890625 8.566406 19.542969 8.675781 20.1875 C 8.78125 20.832031 8.953125 21.460938 9.183594 22.070312 C 9.417969 22.683594 9.707031 23.265625 10.050781 23.820312 C 10.398438 24.375 10.796875 24.890625 11.246094 25.367188 C 11.695312 25.84375 12.183594 26.273438 12.71875 26.652344 C 13.25 27.03125 13.8125 27.355469 14.410156 27.625 C 15.007812 27.894531 15.625 28.101562 16.261719 28.246094 C 16.898438 28.394531 17.542969 28.476562 18.199219 28.5 C 18.851562 28.519531 19.503906 28.472656 20.148438 28.367188 C 20.792969 28.257812 21.421875 28.085938 22.035156 27.855469 C 22.648438 27.625 23.230469 27.332031 23.785156 26.988281 C 24.339844 26.640625 24.855469 26.242188 25.332031 25.792969 C 25.8125 25.34375 26.238281 24.851562 26.617188 24.320312 C 27 23.785156 27.324219 23.222656 27.589844 22.625 C 27.859375 22.027344 28.066406 21.410156 28.214844 20.769531 C 28.359375 20.132812 28.445312 19.488281 28.460938 18.832031 Z M 15.472656 23.757812 L 20.042969 18.535156 L 15.472656 13.308594 L 16.539062 12.371094 L 21.9375 18.535156 L 16.539062 24.699219 Z M 15.472656 23.757812 " fill-opacity="1" fill-rule="nonzero"/></g><g clip-path="url(#acce547995)"><path fill="#000000" d="M 54.136719 43.628906 C 54.15625 42.980469 54.113281 42.339844 54.003906 41.703125 C 53.898438 41.0625 53.730469 40.441406 53.5 39.839844 C 53.269531 39.234375 52.984375 38.65625 52.640625 38.109375 C 52.296875 37.5625 51.902344 37.050781 51.460938 36.582031 C 51.015625 36.109375 50.53125 35.6875 50.003906 35.3125 C 49.476562 34.9375 48.917969 34.617188 48.328125 34.351562 C 47.738281 34.085938 47.128906 33.882812 46.5 33.738281 C 45.871094 33.59375 45.230469 33.511719 44.585938 33.492188 C 43.9375 33.472656 43.296875 33.515625 42.660156 33.621094 C 42.019531 33.730469 41.398438 33.898438 40.796875 34.128906 C 40.191406 34.355469 39.613281 34.644531 39.066406 34.988281 C 38.515625 35.328125 38.007812 35.722656 37.539062 36.164062 C 37.066406 36.609375 36.644531 37.09375 36.269531 37.621094 C 35.894531 38.148438 35.574219 38.707031 35.308594 39.296875 C 35.042969 39.886719 34.835938 40.496094 34.691406 41.125 C 34.546875 41.753906 34.464844 42.394531 34.445312 43.039062 C 34.425781 43.6875 34.46875 44.328125 34.574219 44.96875 C 34.683594 45.605469 34.851562 46.226562 35.078125 46.832031 C 35.308594 47.433594 35.59375 48.011719 35.9375 48.558594 C 36.28125 49.109375 36.675781 49.617188 37.117188 50.089844 C 37.5625 50.558594 38.046875 50.984375 38.570312 51.359375 C 39.097656 51.734375 39.65625 52.054688 40.246094 52.320312 C 40.835938 52.585938 41.445312 52.789062 42.078125 52.9375 C 42.707031 53.082031 43.34375 53.164062 43.992188 53.183594 C 44.636719 53.203125 45.28125 53.160156 45.917969 53.054688 C 46.558594 52.945312 47.179688 52.777344 47.785156 52.546875 C 48.390625 52.320312 48.964844 52.03125 49.515625 51.6875 C 50.0625 51.347656 50.574219 50.953125 51.042969 50.507812 C 51.515625 50.066406 51.9375 49.578125 52.316406 49.050781 C 52.691406 48.527344 53.011719 47.964844 53.277344 47.375 C 53.542969 46.785156 53.746094 46.175781 53.890625 45.542969 C 54.035156 44.914062 54.117188 44.273438 54.136719 43.628906 Z M 41.296875 48.496094 L 45.8125 43.332031 L 41.296875 38.167969 L 42.351562 37.238281 L 47.683594 43.332031 L 42.351562 49.425781 Z M 41.296875 48.496094 " fill-opacity="1" fill-rule="nonzero"/></g></svg>