<svg xmlns="http://www.w3.org/2000/svg" xmlns:xlink="http://www.w3.org/1999/xlink" width="80" zoomAndPan="magnify" viewBox="0 0 60 60" height="80" preserveAspectRatio="xMidYMid meet" version="1.0"><defs><clipPath id="899cac6c14"><path d="M 55.601562 54 L 60 54 L 60 60 L 55.601562 60 Z M 55.601562 54 " clip-rule="nonzero"/></clipPath><clipPath id="c9845dcd8b"><path d="M 8.710938 14.035156 L 51.460938 14.035156 L 51.460938 46.285156 L 8.710938 46.285156 Z M 8.710938 14.035156 " clip-rule="nonzero"/></clipPath><clipPath id="d529cf2c67"><path d="M 58.003906 58.398438 L 60 58.398438 L 60 60 L 58.003906 60 Z M 58.003906 58.398438 " clip-rule="nonzero"/></clipPath></defs><g clip-path="url(#899cac6c14)"><path fill="#000000" d="M 88.371094 71.046875 C 88.386719 70.515625 88.375 69.980469 88.339844 69.449219 C 88.304688 68.917969 88.242188 68.390625 88.152344 67.863281 C 88.0625 67.339844 87.949219 66.820312 87.8125 66.304688 C 87.671875 65.792969 87.507812 65.285156 87.316406 64.789062 C 87.128906 64.289062 86.914062 63.800781 86.679688 63.324219 C 86.441406 62.847656 86.179688 62.382812 85.898438 61.933594 C 85.617188 61.480469 85.3125 61.042969 84.984375 60.625 C 84.660156 60.203125 84.316406 59.796875 83.949219 59.410156 C 83.585938 59.023438 83.199219 58.652344 82.800781 58.300781 C 82.398438 57.953125 81.980469 57.625 81.546875 57.3125 C 81.113281 57.003906 80.664062 56.71875 80.203125 56.453125 C 79.742188 56.1875 79.265625 55.945312 78.78125 55.726562 C 78.292969 55.511719 77.800781 55.316406 77.292969 55.144531 C 76.789062 54.976562 76.277344 54.832031 75.757812 54.710938 C 75.238281 54.59375 74.714844 54.5 74.1875 54.429688 C 73.660156 54.363281 73.128906 54.320312 72.597656 54.304688 C 72.0625 54.289062 71.53125 54.300781 71 54.335938 C 70.46875 54.371094 69.941406 54.433594 69.414062 54.523438 C 68.890625 54.609375 68.371094 54.726562 67.855469 54.863281 C 67.339844 55.003906 66.835938 55.167969 66.335938 55.355469 C 65.839844 55.546875 65.351562 55.757812 64.875 55.996094 C 64.398438 56.234375 63.933594 56.492188 63.480469 56.773438 C 63.03125 57.058594 62.59375 57.363281 62.171875 57.6875 C 61.75 58.011719 61.34375 58.359375 60.957031 58.722656 C 60.570312 59.089844 60.199219 59.472656 59.851562 59.871094 C 59.5 60.273438 59.171875 60.691406 58.863281 61.125 C 58.554688 61.558594 58.265625 62.007812 58 62.46875 C 57.734375 62.929688 57.492188 63.40625 57.273438 63.890625 C 57.054688 64.378906 56.863281 64.871094 56.691406 65.378906 C 56.523438 65.882812 56.378906 66.394531 56.257812 66.914062 C 56.140625 67.433594 56.042969 67.957031 55.976562 68.484375 C 55.910156 69.011719 55.867188 69.542969 55.851562 70.074219 C 55.835938 70.609375 55.84375 71.140625 55.878906 71.671875 C 55.917969 72.203125 55.980469 72.730469 56.066406 73.257812 C 56.15625 73.78125 56.269531 74.300781 56.40625 74.816406 C 56.546875 75.328125 56.710938 75.835938 56.898438 76.335938 C 57.089844 76.832031 57.300781 77.320312 57.539062 77.796875 C 57.773438 78.273438 58.035156 78.738281 58.316406 79.191406 C 58.601562 79.640625 58.902344 80.078125 59.230469 80.5 C 59.554688 80.921875 59.898438 81.328125 60.265625 81.714844 C 60.628906 82.101562 61.011719 82.472656 61.414062 82.820312 C 61.816406 83.171875 62.234375 83.503906 62.667969 83.8125 C 63.101562 84.121094 63.546875 84.40625 64.011719 84.671875 C 64.472656 84.9375 64.945312 85.179688 65.433594 85.398438 C 65.917969 85.617188 66.414062 85.8125 66.917969 85.980469 C 67.421875 86.152344 67.933594 86.296875 68.453125 86.417969 C 68.972656 86.535156 69.496094 86.628906 70.023438 86.699219 C 70.550781 86.765625 71.082031 86.808594 71.617188 86.824219 C 72.148438 86.84375 72.679688 86.832031 73.210938 86.796875 C 73.746094 86.761719 74.273438 86.699219 74.800781 86.609375 C 75.324219 86.519531 75.84375 86.40625 76.359375 86.269531 C 76.875 86.128906 77.378906 85.964844 77.878906 85.777344 C 78.378906 85.585938 78.867188 85.375 79.34375 85.136719 C 79.820312 84.898438 80.285156 84.640625 80.738281 84.359375 C 81.1875 84.074219 81.625 83.769531 82.046875 83.445312 C 82.46875 83.121094 82.875 82.773438 83.261719 82.410156 C 83.652344 82.042969 84.019531 81.660156 84.371094 81.257812 C 84.722656 80.855469 85.050781 80.4375 85.359375 80.003906 C 85.667969 79.570312 85.957031 79.121094 86.222656 78.660156 C 86.488281 78.195312 86.730469 77.722656 86.949219 77.234375 C 87.167969 76.75 87.359375 76.253906 87.53125 75.75 C 87.699219 75.242188 87.84375 74.730469 87.964844 74.210938 C 88.082031 73.691406 88.175781 73.167969 88.246094 72.636719 C 88.3125 72.109375 88.355469 71.578125 88.371094 71.046875 Z M 67.164062 79.085938 L 74.625 70.558594 L 67.164062 62.027344 L 68.90625 60.496094 L 77.714844 70.558594 L 68.90625 80.621094 Z M 67.164062 79.085938 " fill-opacity="1" fill-rule="nonzero"/></g><g clip-path="url(#c9845dcd8b)"><path fill="#e53935" d="M 15.394531 14.035156 L 44.777344 14.035156 C 45.214844 14.035156 45.652344 14.078125 46.082031 14.164062 C 46.511719 14.25 46.929688 14.375 47.332031 14.546875 C 47.738281 14.714844 48.125 14.921875 48.488281 15.167969 C 48.851562 15.410156 49.191406 15.691406 49.5 16 C 49.808594 16.3125 50.085938 16.652344 50.332031 17.019531 C 50.574219 17.386719 50.78125 17.773438 50.949219 18.179688 C 51.117188 18.589844 51.242188 19.007812 51.328125 19.441406 C 51.414062 19.875 51.457031 20.3125 51.457031 20.753906 L 51.457031 39.566406 C 51.457031 40.007812 51.414062 40.441406 51.328125 40.875 C 51.242188 41.308594 51.117188 41.730469 50.949219 42.136719 C 50.78125 42.542969 50.574219 42.929688 50.332031 43.296875 C 50.085938 43.664062 49.808594 44.003906 49.5 44.316406 C 49.191406 44.628906 48.851562 44.90625 48.488281 45.152344 C 48.125 45.398438 47.738281 45.605469 47.332031 45.773438 C 46.929688 45.941406 46.511719 46.070312 46.082031 46.15625 C 45.652344 46.242188 45.214844 46.285156 44.777344 46.285156 L 15.394531 46.285156 C 14.957031 46.285156 14.523438 46.242188 14.09375 46.15625 C 13.664062 46.070312 13.246094 45.941406 12.839844 45.773438 C 12.433594 45.605469 12.050781 45.398438 11.6875 45.152344 C 11.320312 44.90625 10.984375 44.628906 10.671875 44.316406 C 10.363281 44.003906 10.085938 43.664062 9.84375 43.296875 C 9.601562 42.929688 9.394531 42.542969 9.226562 42.136719 C 9.058594 41.730469 8.933594 41.308594 8.847656 40.875 C 8.761719 40.441406 8.71875 40.007812 8.71875 39.566406 L 8.71875 20.753906 C 8.71875 20.3125 8.761719 19.875 8.847656 19.441406 C 8.933594 19.007812 9.058594 18.589844 9.226562 18.179688 C 9.394531 17.773438 9.601562 17.386719 9.84375 17.019531 C 10.085938 16.652344 10.363281 16.3125 10.671875 16 C 10.984375 15.691406 11.320312 15.410156 11.6875 15.167969 C 12.050781 14.921875 12.433594 14.714844 12.839844 14.546875 C 13.246094 14.375 13.664062 14.25 14.09375 14.164062 C 14.523438 14.078125 14.957031 14.035156 15.394531 14.035156 Z M 15.394531 14.035156 " fill-opacity="1" fill-rule="nonzero"/></g><path fill="#fafafa" d="M 37.363281 28.957031 L 24.007812 22.238281 C 23.90625 22.1875 23.800781 22.148438 23.6875 22.125 C 23.578125 22.101562 23.464844 22.09375 23.351562 22.097656 C 23.234375 22.101562 23.125 22.121094 23.015625 22.15625 C 22.90625 22.191406 22.804688 22.238281 22.707031 22.296875 C 22.609375 22.355469 22.523438 22.429688 22.445312 22.511719 C 22.367188 22.59375 22.296875 22.6875 22.242188 22.785156 C 22.1875 22.886719 22.144531 22.992188 22.117188 23.101562 C 22.089844 23.214844 22.074219 23.324219 22.074219 23.441406 L 22.074219 36.878906 C 22.074219 36.992188 22.089844 37.105469 22.117188 37.214844 C 22.144531 37.328125 22.1875 37.433594 22.242188 37.53125 C 22.296875 37.632812 22.367188 37.722656 22.445312 37.804688 C 22.523438 37.890625 22.609375 37.960938 22.707031 38.019531 C 22.804688 38.082031 22.90625 38.128906 23.015625 38.160156 C 23.125 38.195312 23.234375 38.214844 23.351562 38.21875 C 23.464844 38.226562 23.578125 38.214844 23.6875 38.191406 C 23.800781 38.167969 23.90625 38.128906 24.007812 38.078125 L 37.363281 31.359375 C 37.589844 31.246094 37.769531 31.082031 37.902344 30.863281 C 38.035156 30.648438 38.101562 30.414062 38.101562 30.15625 C 38.101562 29.902344 38.035156 29.667969 37.902344 29.449219 C 37.769531 29.234375 37.589844 29.070312 37.363281 28.953125 Z M 37.363281 28.957031 " fill-opacity="1" fill-rule="nonzero"/><g clip-path="url(#d529cf2c67)"><path stroke-linecap="round" transform="matrix(0.00544168, 0, 0, 0.00544168, 45.124071, 45.517179)" fill="none" stroke-linejoin="round" d="M 6688.990364 4572.346096 C 6688.990364 4710.888937 6675.351432 4848.713939 6648.073567 4985.103264 C 6621.513541 5121.492589 6581.314582 5253.574882 6528.194529 5382.067983 C 6474.356637 5510.561084 6409.751168 5632.593638 6332.224604 5748.165645 C 6254.69804 5863.737652 6167.121737 5970.695596 6068.777855 6069.039478 C 5970.433974 6167.383359 5863.476029 6254.959663 5747.904022 6332.486226 C 5632.332015 6409.294952 5510.299462 6474.61826 5381.806361 6527.738313 C 5254.031098 6580.858366 5121.230966 6621.057324 4984.841641 6648.335189 C 4848.452316 6675.613054 4711.345153 6689.251987 4572.084474 6689.251987 C 4432.823795 6689.251987 4294.998793 6675.613054 4159.327306 6648.335189 C 4022.937981 6621.057324 3890.137849 6580.858366 3761.644748 6527.738313 C 3633.151647 6474.61826 3511.119093 6409.294952 3395.547086 6332.486226 C 3279.97508 6254.959663 3173.017135 6167.383359 3075.391092 6069.039478 C 2977.04721 5970.695596 2888.753069 5863.737652 2811.944343 5748.165645 C 2734.41778 5632.593638 2669.094471 5510.561084 2615.974419 5382.067983 C 2562.854366 5253.574882 2522.655407 5121.492589 2495.377542 4985.103264 C 2468.817515 4848.713939 2455.178583 4710.888937 2455.178583 4572.346096 C 2455.178583 4433.085417 2468.817515 4295.260415 2495.377542 4158.87109 C 2522.655407 4022.481765 2562.854366 3890.399471 2615.974419 3761.906371 C 2669.094471 3633.41327 2734.41778 3511.380716 2811.944343 3395.808709 C 2888.753069 3280.236702 2977.04721 3173.278758 3075.391092 3074.934876 C 3173.017135 2976.590994 3279.97508 2889.014691 3395.547086 2811.488127 C 3511.119093 2734.679402 3633.151647 2669.356094 3761.644748 2616.236041 C 3890.137849 2563.115988 4022.937981 2522.917029 4159.327306 2495.639164 C 4294.998793 2468.361299 4432.823795 2454.722367 4572.084474 2454.722367 C 4711.345153 2454.722367 4848.452316 2468.361299 4984.841641 2495.639164 C 5121.230966 2522.917029 5254.031098 2563.115988 5381.806361 2616.236041 C 5510.299462 2669.356094 5632.332015 2734.679402 5747.904022 2811.488127 C 5863.476029 2889.014691 5970.433974 2976.590994 6068.777855 3074.934876 C 6167.121737 3173.278758 6254.69804 3280.236702 6332.224604 3395.808709 C 6409.751168 3511.380716 6474.356637 3633.41327 6528.194529 3761.906371 C 6581.314582 3890.399471 6621.513541 4022.481765 6648.073567 4158.87109 C 6675.351432 4295.260415 6688.990364 4433.085417 6688.990364 4572.346096 Z M 6688.990364 4572.346096 " stroke="#ffffff" stroke-width="176.38" stroke-opacity="1" stroke-miterlimit="4"/></g></svg>