<?xml version="1.0" standalone="no"?>
<!DOCTYPE svg PUBLIC "-//W3C//DTD SVG 20010904//EN"
 "http://www.w3.org/TR/2001/REC-SVG-20010904/DTD/svg10.dtd">
<svg version="1.0" xmlns="http://www.w3.org/2000/svg"
 width="375.000000pt" height="375.000000pt" viewBox="0 0 375.000000 375.000000"
 preserveAspectRatio="xMidYMid meet">
<metadata>
Created by potrace 1.14, written by Peter Selinger 2001-2017
</metadata>
<g transform="translate(0.000000,375.000000) scale(0.100000,-0.100000)"
fill="#000000" stroke="none">
<path d="M1730 3418 c-458 -65 -858 -418 -1041 -920 -17 -46 -32 -90 -34 -98
-1 -8 -9 -35 -16 -60 -15 -52 -15 -50 -29 -150 -24 -169 -28 -210 -28 -315 0
-109 4 -148 34 -340 21 -131 80 -310 147 -443 60 -119 86 -160 192 -300 20
-27 209 -212 216 -212 4 0 15 -7 24 -16 33 -33 179 -114 268 -148 156 -60 362
-98 394 -73 7 5 21 6 30 2 28 -12 53 -13 46 -2 -4 6 -1 7 8 1 21 -12 47 -15
54 -5 3 5 15 7 27 3 16 -4 19 -2 13 9 -6 11 -5 11 4 3 10 -9 25 -8 62 1 27 7
49 11 49 9 0 -2 46 13 102 32 195 68 350 171 508 339 135 142 264 366 335 580
34 103 83 331 83 385 0 14 1 61 1 105 2 106 -7 335 -13 360 -3 11 -14 63 -25
115 -78 372 -298 719 -585 924 -129 92 -292 169 -404 191 -12 2 -25 6 -30 8
-29 18 -297 28 -392 15z m335 -36 c22 -6 54 -14 72 -17 43 -7 180 -58 245 -91
105 -53 226 -142 318 -234 322 -320 490 -816 446 -1320 -4 -47 -10 -94 -13
-105 -3 -11 -7 -37 -9 -57 -3 -39 -17 -97 -39 -165 -8 -23 -16 -52 -19 -65 -7
-38 -51 -140 -107 -251 -98 -195 -236 -358 -413 -490 -70 -51 -81 -56 -87 -40
-23 64 -41 595 -20 616 8 8 38 3 103 -17 51 -15 100 -29 110 -31 9 -2 30 -11
46 -19 30 -15 48 -10 34 10 -12 17 -145 64 -223 79 -41 8 -87 35 -92 54 -3 12
-1 18 4 15 5 -3 12 2 15 10 4 11 15 15 38 11 54 -8 185 -56 284 -106 88 -44
112 -51 112 -30 0 18 -213 117 -327 151 -24 7 -43 17 -43 21 0 4 -8 5 -19 2
-18 -5 -34 9 -37 34 -2 14 29 10 126 -18 55 -15 52 -14 70 -22 8 -3 33 -11 55
-17 22 -7 88 -37 147 -68 102 -53 137 -62 108 -27 -7 9 -63 40 -124 69 -127
60 -143 67 -246 96 -132 38 -125 34 -123 63 2 20 -2 25 -15 21 -9 -3 -5 2 11
11 25 14 32 26 28 48 -1 5 3 6 8 2 6 -3 38 29 71 71 50 62 60 81 55 103 -3 14
-8 39 -11 55 -3 16 -7 33 -10 38 -3 5 11 30 30 57 20 27 36 52 36 56 0 3 7 13
15 21 27 27 28 62 5 132 -47 139 -154 307 -213 333 -39 17 -103 4 -159 -33
-44 -27 -53 -29 -100 -23 -152 20 -197 23 -358 20 -96 -1 -196 -8 -223 -14
-80 -19 -124 -17 -150 7 -48 45 -130 64 -179 41 -44 -20 -171 -207 -183 -270
-3 -12 -11 -37 -19 -54 -31 -64 -30 -97 3 -143 17 -23 31 -44 31 -48 0 -3 11
-20 25 -38 14 -18 23 -35 21 -37 -2 -2 -7 -22 -10 -44 -4 -22 -9 -48 -12 -58
-6 -18 47 -98 107 -162 33 -36 61 -96 51 -112 -4 -7 -22 -15 -40 -18 -18 -3
-49 -12 -70 -19 -20 -8 -68 -24 -107 -36 -84 -27 -231 -101 -265 -132 -21 -20
-22 -23 -7 -26 9 -2 29 5 44 16 37 25 105 59 157 78 114 43 172 62 178 57 5
-2 8 1 8 6 0 6 9 11 21 11 11 0 29 5 40 11 26 13 58 3 55 -18 -2 -11 -29 -24
-87 -40 -46 -13 -93 -28 -104 -32 -21 -9 -56 -23 -65 -26 -29 -7 -152 -79
-157 -91 -10 -27 6 -27 54 2 96 57 339 144 362 129 12 -7 11 -45 -1 -61 -5 -7
-25 -15 -46 -18 -41 -7 -242 -75 -255 -86 -4 -4 -2 -12 6 -18 10 -8 20 -8 38
2 25 13 131 47 222 71 47 13 47 13 54 -13 8 -33 -4 -333 -17 -420 -6 -37 -12
-92 -14 -122 -5 -73 -4 -70 -16 -70 -24 0 -126 75 -207 153 -114 109 -207 234
-294 397 -68 126 -150 381 -164 510 -16 145 -21 244 -18 338 2 79 0 102 -10
97 -6 -4 -5 -1 3 7 17 14 20 55 6 77 -6 10 -5 12 2 7 7 -4 12 -4 12 1 4 67 48
248 90 363 94 256 238 465 434 630 128 108 310 207 428 235 179 41 387 53 483
27z m-639 -1056 c8 -8 14 -17 14 -19 0 -7 -54 -28 -78 -30 -12 -1 -22 -4 -22
-7 0 -3 -10 -6 -22 -7 -13 -1 -36 -5 -52 -9 l-29 -7 31 46 c18 25 37 47 44 50
24 8 100 -3 114 -17z m1055 -2 c24 -21 54 -74 42 -74 -7 0 -54 12 -108 26 -11
3 -24 6 -30 8 -32 8 -55 18 -55 25 0 4 10 13 23 19 50 25 98 23 128 -4z m-323
-35 l82 -12 -6 -68 c-6 -72 3 -100 48 -150 35 -40 85 -61 145 -61 29 0 56 -6
61 -12 19 -26 54 -128 49 -144 -16 -51 -49 -169 -52 -183 -26 -129 -79 -251
-100 -231 -5 4 -5 -2 -1 -12 5 -14 3 -16 -6 -9 -7 6 -33 14 -58 18 -25 4 -52
9 -60 10 -124 23 -172 27 -183 16 -8 -8 -8 -14 0 -22 15 -15 66 -3 57 14 -4 7
-3 8 2 4 5 -5 9 -14 9 -20 0 -7 11 -13 25 -14 67 -5 112 -13 132 -24 l21 -11
-24 -18 c-13 -10 -26 -17 -29 -15 -4 2 -29 7 -56 10 -27 4 -65 10 -85 14 -35
8 -69 -1 -69 -19 0 -10 68 -24 143 -28 36 -3 34 -16 -6 -35 -32 -16 -152 -17
-176 -3 -7 4 -11 -1 -11 -12 0 -23 23 -35 38 -20 8 8 16 6 27 -5 15 -15 13
-18 -17 -37 -24 -15 -44 -19 -71 -15 -70 9 -73 19 -17 75 22 22 40 46 40 54 0
8 6 16 14 19 8 3 13 14 11 24 -2 10 -4 21 -4 25 -1 4 -16 21 -33 37 -73 68
-203 53 -251 -28 -14 -24 -14 -30 0 -60 9 -18 37 -53 62 -77 24 -24 43 -45 40
-47 -14 -10 -63 -27 -79 -27 -24 0 -90 31 -90 42 0 7 8 9 50 13 20 1 40 14 40
25 0 6 -11 9 -24 8 -14 -1 -22 -6 -20 -10 8 -12 -10 -10 -23 3 -8 8 -17 8 -31
0 -10 -6 -21 -8 -23 -6 -3 2 -19 7 -37 10 -34 6 -72 25 -72 36 0 4 21 10 48
13 111 15 122 18 122 32 0 8 -8 15 -17 15 -10 1 -25 2 -33 3 -8 0 -34 -5 -58
-11 -24 -7 -47 -12 -50 -12 -24 4 -52 -2 -48 -10 3 -5 -1 -11 -9 -14 -9 -4
-12 -1 -9 8 3 7 -4 18 -15 25 -12 6 -21 15 -21 20 0 9 50 22 100 26 39 2 42 3
35 13 -3 5 0 13 6 17 7 4 9 3 5 -4 -3 -6 -2 -13 3 -16 5 -4 12 -2 15 3 3 5 22
7 42 4 31 -4 35 -2 32 14 -3 18 -58 33 -58 15 0 -5 -12 -9 -27 -9 -32 1 -112
-10 -163 -22 -30 -6 -40 -3 -72 21 -32 25 -41 43 -54 103 -1 6 -7 30 -14 55
-7 25 -13 52 -15 60 -2 8 -15 54 -29 102 -27 94 -27 100 0 168 24 62 34 72 63
67 52 -11 119 12 161 55 49 51 64 95 56 166 -5 45 -4 57 11 67 10 8 22 10 28
5 5 -4 53 -2 105 6 110 15 353 12 478 -7z m-658 -55 c23 -70 -13 -154 -81
-189 -28 -15 -109 -21 -109 -8 0 10 110 206 127 224 21 25 51 12 63 -27z m835
28 c11 -8 11 -8 80 -135 52 -97 50 -104 -27 -94 -75 10 -137 96 -125 174 9 54
41 78 72 55z m-965 -29 c0 -24 -94 -181 -106 -179 -38 6 -88 85 -78 123 5 19
53 43 87 43 9 0 17 4 17 10 0 5 7 6 17 3 9 -4 14 -2 11 3 -4 5 7 9 23 9 17 0
29 -5 29 -12z m1080 3 c47 -8 110 -29 120 -40 5 -7 11 -25 14 -40 4 -24 -2
-36 -35 -70 l-41 -41 -20 25 c-26 33 -63 96 -83 143 -15 37 -15 38 2 33 10 -3
29 -7 43 -10z m180 -142 c0 -2 -11 -29 -25 -59 -13 -31 -24 -59 -24 -63 1 -4
0 -10 -1 -14 -1 -5 -3 -13 -4 -20 -3 -28 -23 -15 -38 26 l-16 43 33 32 c19 17
37 40 40 51 4 11 12 17 21 13 7 -3 14 -7 14 -9z m-1424 -40 l45 -45 -18 -44
c-20 -50 -37 -46 -48 12 -4 21 -15 54 -26 75 -10 20 -19 40 -19 43 0 16 26 0
66 -41z m-50 -93 c10 -34 23 -61 27 -61 5 0 5 5 1 12 -4 7 -3 8 5 4 6 -4 9
-11 6 -16 -3 -5 -1 -11 5 -15 5 -3 10 -11 10 -18 0 -6 -6 -2 -14 8 -13 18 -14
17 -9 -10 l6 -30 -27 24 c-14 14 -26 29 -26 34 0 6 -8 19 -17 30 -17 18 -26
100 -10 90 4 -2 7 1 7 7 0 26 18 -3 36 -59z m1502 20 c2 -23 -5 -45 -24 -74
-41 -62 -47 -67 -60 -49 -9 12 -11 10 -10 -12 1 -15 8 -31 16 -36 8 -6 10 -10
4 -10 -28 0 -44 59 -19 69 11 4 44 69 45 87 0 21 25 64 35 61 6 -2 11 -18 13
-36z m-91 -203 c1 -7 4 -37 7 -66 7 -52 6 -55 -39 -114 -46 -62 -48 -61 -27
22 35 133 58 195 59 158z m-1339 -23 c-3 -3 5 -41 18 -83 35 -112 32 -125 -16
-71 -30 34 -40 52 -40 79 0 51 10 80 28 80 8 0 13 -2 10 -5z m732 -337 c19
-13 36 -31 38 -40 4 -22 -79 -122 -105 -126 -26 -4 -83 44 -109 93 l-19 37 32
27 c45 38 115 41 163 9z m-550 -28 c0 -5 -2 -10 -4 -10 -3 0 -8 5 -11 10 -3 6
-1 10 4 10 6 0 11 -4 11 -10z m-16 -20 c37 -14 34 -40 -4 -40 -25 0 -30 4 -30
25 0 28 0 28 34 15z m1014 -24 c-2 -15 -9 -20 -23 -18 -33 6 -42 22 -22 37 25
18 49 8 45 -19z m-118 -21 c-7 -8 -9 -15 -4 -16 87 -8 110 -18 112 -46 3 -38
-11 -42 -81 -26 -88 20 -96 27 -64 48 15 9 24 22 21 27 -4 6 0 14 7 19 20 13
23 11 9 -6z m-776 -43 c20 -15 24 -23 15 -26 -119 -39 -170 -35 -161 9 3 17
13 27 31 31 14 3 31 7 36 9 22 7 52 -2 79 -23z m922 16 c4 -7 3 -8 -4 -4 -7 4
-12 2 -12 -5 0 -7 -3 -10 -6 -6 -6 5 3 27 11 27 2 0 7 -5 11 -12z m-246 -32
c0 -2 -8 -10 -17 -17 -16 -13 -17 -12 -4 4 13 16 21 21 21 13z m-576 -29 c-3
-9 24 -27 83 -54 179 -84 186 -85 277 -43 25 11 48 20 52 20 4 0 39 16 77 36
53 27 77 34 101 30 17 -3 49 -8 71 -11 76 -12 115 -25 115 -41 0 -9 5 -12 13
-8 8 5 7 2 -2 -9 -12 -15 -13 -51 -7 -200 7 -190 13 -291 22 -342 11 -61 11
-92 0 -106 -14 -18 -103 -60 -176 -83 -30 -10 -64 -21 -75 -26 -11 -5 -38 -11
-60 -14 -22 -3 -63 -9 -90 -14 -110 -18 -354 1 -433 34 -20 8 -37 14 -37 13 0
-14 -195 78 -201 96 -3 8 4 92 15 187 26 213 32 367 15 430 -12 46 -11 47 15
56 27 10 128 32 165 36 12 2 31 8 42 14 24 14 24 15 18 -1z m291 -37 c-3 -6 3
-14 14 -18 24 -8 16 -23 -20 -39 -21 -9 -30 -8 -49 7 -24 18 -23 19 28 46 32
17 35 17 27 4z"/>
<path d="M1873 3128 c-4 -7 -8 -31 -8 -53 l0 -40 -67 0 c-69 0 -85 -6 -73 -25
5 -7 29 -10 65 -8 32 1 62 0 66 -5 4 -4 7 -100 6 -214 -1 -199 5 -242 29 -227
5 3 9 97 9 209 0 112 3 210 6 219 5 12 20 16 63 16 100 0 107 32 6 35 -66 2
-75 8 -75 55 0 41 -13 59 -27 38z"/>
<path d="M1527 1830 c-28 -25 -52 -58 -63 -85 -16 -43 -16 -48 0 -83 28 -62
128 -114 190 -98 44 11 67 135 38 206 -18 46 -78 100 -110 100 -5 0 -30 -18
-55 -40z m107 -30 c50 -60 56 -163 11 -200 -37 -31 -155 41 -155 93 0 38 15
72 49 106 38 39 62 39 95 1z"/>
<path d="M2126 1829 c-52 -48 -65 -78 -63 -152 3 -77 30 -112 85 -111 49 1 98
23 136 63 54 57 33 143 -53 208 -23 18 -47 33 -52 33 -5 0 -29 -18 -53 -41z
m101 -21 c24 -27 42 -60 53 -100 8 -25 4 -33 -25 -62 -36 -36 -96 -62 -121
-52 -8 3 -21 21 -29 41 -18 42 -11 98 18 140 41 60 70 70 104 33z"/>
</g>
</svg>
